<?xml version="1.0" encoding="UTF-8"?> <svg xmlns="http://www.w3.org/2000/svg" id="Слой_1" data-name="Слой 1" viewBox="0 0 160 160"> <defs> <style>.cls-1{fill:#fce5ea;}.cls-2{fill:#1d1d1b;}</style> </defs> <title>2Монтажная область 1</title> <rect class="cls-1" width="160" height="160"></rect> <path class="cls-2" d="M121.11,68.56l2.67-2.67a5.95,5.95,0,0,0-2.69-10,6,6,0,0,0-8.37-8.37,6,6,0,0,0-10-2.7l-13,12.89a11.28,11.28,0,0,0-.74-4,3.73,3.73,0,0,0-2.72-2.35,3.81,3.81,0,0,0-3.53,1L63.89,71.35a24.61,24.61,0,0,0-7,19.25L42.81,104.65a1.5,1.5,0,0,0,0,2.12l19,19a1.5,1.5,0,0,0,2.12,0L75.1,114.58l5.7,3.12L88.1,131a1.5,1.5,0,0,0,2.63,0L98,117.7l13.34-7.3a1.5,1.5,0,0,0,0-2.63l-10.9-6,23.29-23.29a6,6,0,0,0-2.65-10ZM96.2,115.28a1.5,1.5,0,0,0-.6.6L89.41,127.2l-6.19-11.32a1.5,1.5,0,0,0-.6-.6L71.3,109.08l11.32-6.19a1.5,1.5,0,0,0,.6-.6L89.41,91l6.19,11.32a1.5,1.5,0,0,0,.6.6l11.32,6.19Zm25.44-38.88L97.86,100.17l-7.13-13a1.5,1.5,0,0,0-2.63,0l-7.3,13.34-13.34,7.3a1.5,1.5,0,0,0,0,2.63l4.9,2.68-9.5,9.5L46,105.72,57.45,94.26a23.17,23.17,0,0,0,1.8,5,1.5,1.5,0,0,0,2.68-1.34A21.45,21.45,0,0,1,66,73.47L84.91,54.57a.82.82,0,0,1,.76-.22.73.73,0,0,1,.55.46,7.39,7.39,0,0,1-1.91,8.34L74,73.44a1.5,1.5,0,1,0,2.12,2.12L86.43,65.28h0L104.88,47a3,3,0,0,1,4.18,0,3,3,0,0,1,0,4.18h0L90.75,69.48a1.5,1.5,0,0,0,2.12,2.12l21.48-21.48a3,3,0,0,1,4.18,0,3,3,0,0,1,0,4.18L97,75.78a1.5,1.5,0,1,0,2.12,2.12l18.31-18.31h0a3,3,0,0,1,4.18,0,3,3,0,0,1,0,4.18L103.35,82.08a1.5,1.5,0,1,0,2.12,2.12l12-12a3,3,0,0,1,4.18,0,3,3,0,0,1,0,4.18Z"></path> <path class="cls-2" d="M48.73,62.56a1.5,1.5,0,0,0,2.63,0l4.77-8.72,8.72-4.77a1.5,1.5,0,0,0,0-2.63l-8.72-4.77L51.37,33a1.5,1.5,0,0,0-2.63,0L44,41.67l-8.72,4.77a1.5,1.5,0,0,0,0,2.63L44,53.84ZM45.79,44.1a1.5,1.5,0,0,0,.6-.6l3.66-6.7,3.66,6.7a1.5,1.5,0,0,0,.6.6L61,47.76l-6.69,3.66a1.5,1.5,0,0,0-.6.6l-3.66,6.69L46.39,52a1.5,1.5,0,0,0-.6-.6l-6.7-3.66Z"></path> </svg> 