<?xml version="1.0" encoding="UTF-8"?> <svg xmlns="http://www.w3.org/2000/svg" id="Слой_1" data-name="Слой 1" viewBox="0 0 160 160"> <defs> <style>.cls-1{fill:#fce5ea;}.cls-2{fill:#1d1d1b;}</style> </defs> <title>2Монтажная область 3</title> <rect class="cls-1" width="160" height="160"></rect> <path class="cls-2" d="M95,71.5H90v-3h2A1.5,1.5,0,0,0,93.5,67V31.79a1.5,1.5,0,0,0-1.5-1.5H68a1.5,1.5,0,0,0-1.5,1.5V67a1.5,1.5,0,0,0,1.5,1.5h2v3H65a7.59,7.59,0,0,0-7.58,7.58v38.8A7.59,7.59,0,0,0,65,125.45H95a7.59,7.59,0,0,0,7.58-7.58V79.08A7.59,7.59,0,0,0,95,71.5ZM69.5,33.29h21V65.45h-21ZM73,68.45H87v3H73Zm7,32.81,3.06,5.53H76.94Zm19.57,16.61A4.58,4.58,0,0,1,95,122.45H65a4.58,4.58,0,0,1-4.58-4.58V79.08A4.58,4.58,0,0,1,65,74.5H78.5V97.78l-5.42,9.79a1.5,1.5,0,0,0,1.31,2.23H85.6a1.5,1.5,0,0,0,1.31-2.23L81.5,97.78V74.5H95a4.58,4.58,0,0,1,4.58,4.58Z"></path> <path class="cls-2" d="M65.81,88.48a1.5,1.5,0,0,0-1.5,1.5v24.46a1.5,1.5,0,1,0,3,0V90A1.5,1.5,0,0,0,65.81,88.48Z"></path> </svg> 