<?xml version="1.0" encoding="UTF-8"?> <svg xmlns="http://www.w3.org/2000/svg" id="Слой_1" data-name="Слой 1" viewBox="0 0 160 160"> <defs> <style>.cls-1{fill:#fce5ea;}.cls-2{fill:#1d1d1b;}</style> </defs> <title>2Монтажная область 4</title> <rect class="cls-1" x="0.23" width="160" height="160"></rect> <path class="cls-2" d="M121.9,116.38l-17.8-28.6a4.25,4.25,0,0,1,1.85-.58A7.3,7.3,0,0,0,112,76.7a4.31,4.31,0,0,1,1.47-5.48,7.3,7.3,0,0,0,0-12.14A4.31,4.31,0,0,1,112,53.61a7.3,7.3,0,0,0-6.07-10.51,4.31,4.31,0,0,1-4-4A7.3,7.3,0,0,0,91.42,33a4.31,4.31,0,0,1-5.48-1.47,7.3,7.3,0,0,0-12.14,0A4.31,4.31,0,0,1,68.33,33a7.3,7.3,0,0,0-10.51,6.07,4.31,4.31,0,0,1-4,4,7.3,7.3,0,0,0-6.07,10.51,4.31,4.31,0,0,1-1.47,5.48,7.3,7.3,0,0,0,0,12.14,4.31,4.31,0,0,1,1.47,5.48,7.3,7.3,0,0,0,6.07,10.51,4.26,4.26,0,0,1,2.35.91l-17.6,28.27a1.5,1.5,0,0,0,0,1.54,1.47,1.47,0,0,0,1.35.75l8.26-.29,3.38,7.54a1.5,1.5,0,0,0,1.27.88h.1a1.5,1.5,0,0,0,1.27-.71L72.11,97.28a4.27,4.27,0,0,1,1.7,1.47,7.3,7.3,0,0,0,12.14,0,4.27,4.27,0,0,1,2.27-1.69l18.08,29a1.5,1.5,0,0,0,1.27.71h.1a1.5,1.5,0,0,0,1.27-.88l3.38-7.54,8.26.29a1.46,1.46,0,0,0,1.35-.75A1.5,1.5,0,0,0,121.9,116.38Zm-68.78,5.74-2.64-5.89a1.49,1.49,0,0,0-1.42-.89l-6.45.23L57.81,91.15s0,0,0,.07a7.3,7.3,0,0,0,10.51,6.07c.1-.05.21-.08.32-.12Zm30.34-25a4.3,4.3,0,0,1-7.15,0A7.31,7.31,0,0,0,67,94.59,4.3,4.3,0,0,1,60.82,91,7.32,7.32,0,0,0,54,84.21,4.3,4.3,0,0,1,50.44,78a7.32,7.32,0,0,0-2.49-9.3,4.3,4.3,0,0,1,0-7.15,7.32,7.32,0,0,0,2.49-9.3A4.3,4.3,0,0,1,54,46.09a7.32,7.32,0,0,0,6.81-6.81A4.3,4.3,0,0,1,67,35.71a7.32,7.32,0,0,0,9.3-2.49,4.3,4.3,0,0,1,7.15,0,7.32,7.32,0,0,0,9.3,2.49,4.3,4.3,0,0,1,6.19,3.57,7.32,7.32,0,0,0,6.81,6.81,4.3,4.3,0,0,1,3.57,6.19,7.32,7.32,0,0,0,2.49,9.3,4.3,4.3,0,0,1,0,7.15,7.32,7.32,0,0,0-2.49,9.3,4.3,4.3,0,0,1-3.57,6.19A7.32,7.32,0,0,0,98.94,91a4.3,4.3,0,0,1-6.19,3.57A7.32,7.32,0,0,0,83.45,97.08Zm28,18.26a1.48,1.48,0,0,0-1.42.89l-2.64,5.89L92,97.54a7.29,7.29,0,0,0,9.89-6.33,4.24,4.24,0,0,1,.18-.93l15.75,25.29Z"></path> <path class="cls-2" d="M99.23,60.92a1.5,1.5,0,0,0-.81-2.5l-11.56-2.2L81.19,45.91a1.5,1.5,0,0,0-2.63,0L72.9,56.22l-11.56,2.2a1.5,1.5,0,0,0-.81,2.5l8.06,8.57L67.11,81.16a1.5,1.5,0,0,0,2.13,1.54l10.64-5,10.64,5a1.5,1.5,0,0,0,2.13-1.54L91.17,69.49ZM88.5,68a1.5,1.5,0,0,0-.4,1.22l1.23,9.66-8.81-4.15a1.5,1.5,0,0,0-1.28,0l-8.81,4.15,1.23-9.66a1.5,1.5,0,0,0-.4-1.22l-6.67-7.1L74.16,59a1.5,1.5,0,0,0,1-.75l4.69-8.54,4.69,8.54a1.5,1.5,0,0,0,1,.75l9.57,1.82Z"></path> </svg> 